<svg aria-hidden="true" style="position:absolute;width:0;height:0;overflow:hidden" xmlns="http://www.w3.org/2000/svg"><defs><symbol id="icon-menu-close" viewBox="0 0 32 32"><path fill="none" stroke="#fff" style="stroke:var(--color1, #fff)" stroke-width=".8" d="m10.64 10.4 10.8 11.2M10.4 21.36l11.2-10.8"/></symbol><symbol id="icon-menu-open" viewBox="0 0 32 32"><path fill="none" stroke="#d41443" style="stroke:var(--color2, #d41443)" stroke-width=".8" d="M8 11.2h16M8 16h16M8 20.8h16"/></symbol><symbol id="icon-arrow-1" viewBox="0 0 32 32"><path fill="none" stroke-linejoin="round" stroke-linecap="round" stroke-width="6.4" d="M9.6 3.2 22.4 16 9.6 28.8"/></symbol><symbol id="icon-arrow-2" viewBox="0 0 32 32"><path fill="none" stroke="#d41443" style="stroke:var(--color2, #d41443)" stroke-miterlimit="10" stroke-width="1.7231" d="M20.431 16h-8.369"/><path fill="none" stroke="#d41443" style="stroke:var(--color2, #d41443)" stroke-linejoin="round" stroke-miterlimit="10" stroke-width="1.7231" d="M16.369 19.446 20.431 16l-4.062-3.446"/></symbol><symbol id="icon-bucket-of-apples" viewBox="0 0 32 32"><path fill="#fea5bb" style="fill:var(--color3, #fea5bb)" d="M28.627 21.12h-.059c-.77 0-1.5.17-2.155.474l.032-.013c.214-1.064.663-1.999 1.29-2.784l-.01.013c.141-.159.227-.37.227-.601 0-.269-.117-.511-.303-.678l-.001-.001a.9438.9438 0 0 0-.63-.24.94.94 0 0 0-.7.31l-.001.001a8.293 8.293 0 0 0-1.746 3.789l-.008.051a2.5205 2.5205 0 0 0-1.025-.357l-.012-.001 1.766-10.112c.005-.037.008-.08.008-.123 0-.232-.085-.445-.227-.608l.001.001c-.175-.204-.433-.333-.721-.333h-.437c0-1.51-.256-4.218-2.074-5.299-1.005-.595-2.266-.576-3.75.045.339-1.197.824-2.244 1.447-3.192l-.027.043a.9051.9051 0 0 0 .164-.523c0-.313-.158-.59-.398-.755l-.003-.002a.9433.9433 0 0 0-.535-.164c-.319 0-.602.157-.775.398l-.002.003c-.795 1.177-1.414 2.548-1.78 4.02l-.019.088c-.534-.248-1.159-.393-1.818-.393-.454 0-.893.069-1.305.197l.031-.008c-.753-1.072-1.939-1.796-3.298-1.919l-.017-.001c-1.952-.192-3.168 1.005-3.84 2.291-.389-.953-.614-2.058-.614-3.216 0-.166.005-.33.014-.493l-.001.023a.8794.8794 0 0 0 .008-.119.934.934 0 0 0-.842-.93h-.004c-.03-.003-.065-.005-.1-.005-.493 0-.899.377-.943.859V.86c-.013.19-.02.412-.02.635 0 1.518.33 2.958.923 4.254l-.026-.064c-.981.06-1.865.429-2.567 1.011l.007-.006C-.002 8.194.05 10.741.056 10.882c-.002.018-.002.039-.002.061s.001.043.003.064v-.003l3.539 20.23c.084.44.466.768.925.768H20.84c.457 0 .838-.328.919-.762l.001-.006.038-.23c.986.406 2.131.642 3.332.642.073 0 .146-.001.218-.003h-.011c2.765 0 4.339-1.005 5.165-1.85.963-1.004 1.556-2.37 1.556-3.874 0-.031 0-.062-.001-.093v.005c-.006-2.592-1.542-4.71-3.43-4.71zM2.118 11.744h21.12l-.198 1.235c-1.056 4.077-5.178 7.04-9.811 7.04H12.16c-4.678 0-8.928-3.2-9.894-7.488zM16.051 6.79c.128.22.339.381.589.44l.006.001c.065.016.14.025.216.025.193 0 .373-.057.523-.155l-.004.002c1.562-1.005 2.797-1.344 3.482-.928.954.563 1.158 2.458 1.158 3.706h-7.539c.001-.049.001-.107.001-.166 0-1.312-.204-2.576-.582-3.762l.024.088c.151-.041.325-.064.504-.064.661 0 1.248.317 1.617.807l.004.005zM2.989 8.07c.64-.563 1.69-.717 3.04-.454.052.01.112.016.174.016.203 0 .391-.063.546-.172l-.003.002a.9184.9184 0 0 0 .39-.603l.001-.005c0-.115.506-2.822 2.438-2.63 2.406.237 3.002 3.021 3.027 5.632H2.036c.119-.702.462-1.308.951-1.758l.002-.002zm17.037 22.074H5.306L3.2 18.048c2.264 2.36 5.439 3.829 8.958 3.84h1.104c3.46 0 6.591-1.404 8.856-3.673l-.544 3.123-.435.154c-.151.061-.279.128-.401.204l.01-.006a.286.286 0 0 0-.071.045c-1.046.82-1.756 2.026-1.918 3.4l-.002.024c-.001.007-.002.014-.002.022s.001.016.002.023v-.001c-.028.157-.05.35-.063.547l-.001.017v.89c0 .077 0 .218.038.32s0 .166.032.25c.001.006.002.012.002.019s-.001.013-.002.02v-.001c0 .115.051.243.09.371s.045.154.064.23.077.211.115.326.083.192.128.288l.045.096c.109.22.218.404.337.581l-.011-.017.077.115.211.269.134.154.147.173zm9.113-1.645c-.838.851-2.118 1.28-3.84 1.28s-2.899-.339-3.68-1.056c-.08-.065-.151-.134-.216-.209l-.002-.002a1.8683 1.8683 0 0 1-.207-.238l-.004-.005a2.5089 2.5089 0 0 1-.154-.22l-.006-.011c-.058-.096-.109-.192-.16-.294s-.077-.154-.109-.237c-.059-.146-.111-.322-.15-.503l-.004-.022c0-.077 0-.147-.032-.224s0-.224 0-.339V25.728c-.002-.029-.003-.062-.003-.096s.001-.067.003-.101v.005c0-.09.032-.179.045-.269.034-.165.072-.303.117-.437l-.008.027c0-.096.051-.192.083-.282l.096-.224.09-.192.109-.211.083-.128c.07-.109.14-.203.215-.292l-.003.004.102-.109.096-.083a.813.813 0 0 1 .193-.126l.005-.002c.212-.085.474-.168.744-.234l.043-.009h.09c.112-.025.241-.041.374-.045h.003c.602 0 .858.41 1.376 1.242l.09.141c.172.265.467.437.802.437a.95.95 0 0 0 .84-.503l.003-.005c.494-.737 1.325-1.216 2.267-1.216.067 0 .134.002.2.007h-.009c.71 0 1.536 1.235 1.536 2.835 0 .019.001.041.001.063 0 .997-.387 1.903-1.02 2.576l.002-.002z"/></symbol><symbol id="icon-bucket-of-milk" viewBox="0 0 20 32"><path fill="#fea5bb" style="fill:var(--color3, #fea5bb)" d="M20.25 13.44a.969.969 0 0 0-.727-.326H.957c-.289 0-.548.126-.726.325l-.001.001a.9058.9058 0 0 0-.242.617c0 .051.004.101.012.149l-.001-.005 2.816 17.107c.085.447.472.781.938.781h12.972c.466 0 .853-.334.937-.775l.001-.006 2.816-17.107a.911.911 0 0 0 .012-.144c0-.239-.092-.456-.242-.618l.001.001zm-1.85 1.542-.147.877c-.916 3.372-3.95 5.811-7.553 5.811h-.882c-3.737-.038-6.855-2.647-7.669-6.141l-.011-.054-.083-.493zm-2.502 15.245H4.576l-1.555-9.498c1.753 1.717 4.148 2.785 6.792 2.81h.85c2.627-.006 5.013-1.033 6.782-2.705l-.005.004zM4.877 8.371l1.107-.838c.457.229.991.431 1.549.576l.058.013v1.536c0 1.463 1.186 2.65 2.65 2.65s2.65-1.186 2.65-2.65V8.122c.621-.159 1.162-.365 1.672-.623l-.046.021 1.101.838c.446.337 1.011.54 1.622.54.843 0 1.596-.385 2.093-.989l.004-.005c.349-.427.561-.978.561-1.579 0-.12-.009-.239-.025-.354l.002.013c-.101-.698-.47-1.294-.998-1.691l-.007-.005-.64-.486c.395-.782.666-1.693.759-2.657l.002-.031a.9209.9209 0 0 0-.237-.718l.001.001a.9832.9832 0 0 0-.71-.307H2.442a.9814.9814 0 0 0-.71.307.918.918 0 0 0-.242.72v-.004c.095 1.009.37 1.934.795 2.77l-.02-.044-.64.486C1.1 4.731.74 5.327.647 6.008l-.001.013c-.015.103-.024.221-.024.342 0 .601.214 1.153.571 1.582l-.003-.004c.499.594 1.242.969 2.072.969.611 0 1.175-.203 1.627-.545l-.007.005zM2.797 5.76l1.28-.966c.22-.169.361-.432.361-.728a.91.91 0 0 0-.139-.485l.002.004c-.299-.468-.546-1.008-.712-1.582l-.011-.044h13.325c-.173.613-.418 1.149-.731 1.637l.014-.024a.8971.8971 0 0 0-.14.484c0 .299.145.565.368.73l.002.002 1.28.973c.149.112.25.279.275.47v.003a.6723.6723 0 0 1-.148.526l.001-.001a.7415.7415 0 0 1-.483.275h-.004a.7163.7163 0 0 1-.084.005.7716.7716 0 0 1-.462-.153l.002.001-1.606-1.216a.9716.9716 0 0 0-.596-.202c-.189 0-.366.054-.516.147l.004-.002c-.668.404-1.45.698-2.286.833l-.038.005c-.454.068-.798.454-.8.921v2.285c0 .406-.33.736-.736.736s-.736-.33-.736-.736V7.373a.9351.9351 0 0 0-.795-.921l-.005-.001c-.859-.136-1.629-.428-2.312-.848l.027.016c-.145-.084-.32-.134-.505-.134h-.004a.961.961 0 0 0-.587.2l.002-.002-1.606 1.216a.7393.7393 0 0 1-.453.154c-.233 0-.44-.107-.576-.274l-.001-.001a.6723.6723 0 0 1-.154-.43c0-.033.002-.066.007-.098v.004a.7246.7246 0 0 1 .274-.492l.002-.001z"/></symbol><symbol id="icon-facebook" viewBox="0 0 32 32"><path fill="#fff" style="fill:var(--color1, #fff)" d="M20.446 15.982h-2.61V25.6h-3.955v-9.618H12v-3.38h1.881v-2.187c0-1.564.739-4.014 3.99-4.014l2.929.012v3.281h-2.125c-.349 0-.839.175-.839.921v1.989h2.955l-.346 3.377z"/></symbol><symbol id="icon-github" viewBox="0 0 32 32"><path fill="#fff" style="fill:var(--color1, #fff)" d="M16 6.588c-5.169 0-9.412 4.242-9.412 9.412 0 4.411 3.095 8.419 7.206 9.412v-3.114c-.407.089-.782.092-1.197-.03-.556-.164-1.008-.535-1.344-1.1-.214-.361-.593-.752-.988-.723l-.097-1.099c.855-.073 1.595.521 2.034 1.259.195.328.419.52.708.605.278.082.578.043.926-.08.088-.698.407-.959.648-1.326v-.001c-2.451-.366-3.428-1.666-3.816-2.693-.514-1.363-.238-3.066.671-4.142.018-.021.05-.076.037-.114-.417-1.258.091-2.299.11-2.41.481.142.559-.143 2.089.786l.264.159c.111.066.076.028.186.02A8.0312 8.0312 0 0 1 16 11.131c.668.009 1.337.104 2.002.285l.086.009c-.007-.001.023-.005.075-.036 1.911-1.157 1.842-.779 2.355-.946.019.111.519 1.169.107 2.411-.056.171 1.657 1.739.708 4.256-.388 1.027-1.365 2.328-3.816 2.693v.001c.314.479.692.734.69 1.722v3.887c4.111-.993 7.206-5 7.206-9.412 0-5.169-4.242-9.412-9.412-9.412z"/></symbol><symbol id="icon-heart" viewBox="0 0 28 32"><path fill="#fea5bb" style="fill:var(--color3, #fea5bb)" d="M28.16 8.173C28.16 4.224 25.728 0 21.216 0c-3.341 0-5.952 1.92-7.136 3.008C12.896 1.958 10.285 0 6.944 0 2.432 0 0 4.224 0 8.173 0 9.901.832 16 11.29 23.143v7.949c.011.504.422.909.928.909h3.725c.513 0 .928-.415.928-.928v-7.93c10.458-7.142 11.29-13.242 11.29-14.97zM6.944 1.882c3.674 0 6.4 3.034 6.445 3.059.172.186.418.303.691.303s.519-.116.691-.302l.001-.001c.032 0 2.752-3.059 6.445-3.059s5.12 3.84 5.12 6.291c-.04 1.141-.312 2.209-.77 3.172l.021-.049c-.068.009-.146.014-.226.014-.314 0-.609-.081-.865-.224l.009.005c-.045-.038-.147-.122-.147-.435v-.678c0-1.541-1.249-2.79-2.79-2.79s-2.79 1.249-2.79 2.79v2.496c.002.023.003.05.003.078 0 .52-.421.941-.941.941s-.941-.421-.941-.941c0-.027.001-.054.003-.081v.003-2.496c0-1.541-1.249-2.79-2.79-2.79s-2.79 1.249-2.79 2.79v2.496c.002.023.003.05.003.078 0 .52-.421.941-.941.941s-.941-.421-.941-.941c0-.027.001-.054.003-.081v.003-2.496c0-1.541-1.249-2.79-2.79-2.79s-2.79 1.249-2.79 2.79v.678c0 .314-.102.397-.147.435-.247.138-.542.219-.856.219-.08 0-.158-.005-.235-.015l.009.001c-.448-.912-.73-1.979-.78-3.106l-.001-.017c0-2.413 1.382-6.291 5.088-6.291zm8.07 28.281h-1.869v-6.586h1.869zm.64-8.441h-3.149c-4.48-3.04-7.347-6.042-8.96-8.627.49-.085.923-.284 1.286-.568l-.006.005c.511-.43.834-1.07.834-1.786 0-.031-.001-.063-.002-.094v.004-.678a.9254.9254 0 0 1-.003-.078c0-.52.421-.941.941-.941s.941.421.941.941c0 .027-.001.054-.003.081v-.003 2.496c0 1.541 1.249 2.79 2.79 2.79s2.79-1.249 2.79-2.79V9.978c0-.516.418-.934.934-.934s.934.418.934.934v2.496c0 1.541 1.249 2.79 2.79 2.79s2.79-1.249 2.79-2.79V9.978a.9254.9254 0 0 1-.003-.078c0-.52.421-.941.941-.941s.941.421.941.941c0 .027-.001.054-.003.081v-.003.678c-.001.027-.002.058-.002.089 0 .716.323 1.356.83 1.783l.004.003c.357.28.79.478 1.263.561l.017.002c-1.549 2.586-4.39 5.587-8.896 8.627z"/></symbol><symbol id="icon-logo" viewBox="0 0 32 32"><path fill="#d51744" style="fill:var(--color4, #d51744)" d="M32 16c0 8.837-7.163 16-16 16S0 24.837 0 16 7.163 0 16 0s16 7.163 16 16z"/><path fill="#fff" style="fill:var(--color1, #fff)" d="M25.293 15.674v-1.28c-.266-4.918-4.319-8.805-9.28-8.805s-9.014 3.887-9.279 8.782l-.001.024v1.28c-1.175.364-2.014 1.441-2.014 2.714s.839 2.35 1.994 2.708l.02.005v3.675c0 2.276 1.593 4.181 3.725 4.659l.032.006v1.6c.518.199 1.16.393 1.818.544l.102.02v-2.074h7.174v2.061c.76-.17 1.402-.364 2.024-.598l-.104.034v-1.587c2.175-.474 3.78-2.382 3.782-4.665v-3.655c1.175-.364 2.014-1.441 2.014-2.714s-.839-2.35-1.994-2.708l-.02-.005zM16 7.002h.019c2.241 0 4.246 1.005 5.592 2.588l.009.01c-1.356 1.605-3.369 2.617-5.619 2.617s-4.264-1.012-5.61-2.606l-.009-.011c1.354-1.594 3.36-2.598 5.6-2.598h.02-.001zm-7.36 7.36c0-1.108.248-2.158.691-3.097l-.019.044.038.038c1.684 1.741 4.041 2.822 6.65 2.822 2.628 0 5-1.096 6.684-2.857l.003-.003c.404.878.64 1.905.64 2.987v.069-.004 1.171H8.607zm14.72 10.4v.006c0 1.566-1.269 2.835-2.835 2.835h-9.05c-1.566 0-2.835-1.269-2.835-2.835v-3.527h7.2v1.92c0 1.566 1.269 2.835 2.835 2.835s2.835-1.269 2.835-2.835v-1.92h1.85zm1.92-5.997c-.038.076-.078.141-.124.202l.002-.003v.038a1.011 1.011 0 0 1-.176.151l-.004.002a.848.848 0 0 1-.199.094l-.006.002h-.058a.9966.9966 0 0 1-.241.038H19.57c.002.014.002.031.002.048s-.001.034-.003.05v-.002 3.744c-.041.468-.43.833-.906.833s-.865-.365-.905-.829v-3.817H7.518a1.013 1.013 0 0 1-.25-.04l.007.002h-.058a.8676.8676 0 0 1-.208-.098l.003.002a1.0619 1.0619 0 0 1-.179-.153l-.001-.001-.032-.038a1.3034 1.3034 0 0 1-.118-.191l-.003-.007c-.053-.111-.083-.241-.083-.378s.031-.267.086-.383l-.002.005c.038-.076.078-.141.124-.202l-.002.003.032-.038c.053-.057.112-.108.176-.151l.004-.002c.058-.035.126-.067.197-.093l.008-.003h.058a.9966.9966 0 0 1 .241-.038h16.93c.088.003.171.017.25.04l-.007-.002h.058c.079.029.147.061.21.099l-.005-.003c.067.046.126.096.179.153l.001.001v.038c.043.058.084.123.118.191l.003.007c.053.111.083.241.083.378s-.031.267-.086.383l.002-.005z"/></symbol><symbol id="icon-telegram" viewBox="0 0 32 32"><path fill="#fff" style="fill:var(--color1, #fff)" d="m12.867 18.375-.318 4.169c.454 0 .651-.182.887-.401l2.13-1.9 4.415 3.017c.81.421 1.38.199 1.598-.695l2.898-12.673c.257-1.117-.433-1.554-1.222-1.28L6.223 14.698c-1.162.421-1.145 1.026-.198 1.3l4.354 1.264 10.115-5.907c.476-.294.909-.131.553.163l-8.182 6.857z"/></symbol></defs></svg>