<svg aria-hidden="true" style="position: absolute; width: 0; height: 0; overflow: hidden;" version="1.1" xmlns="http://www.w3.org/2000/svg" xmlns:xlink="http://www.w3.org/1999/xlink">
<defs>
<symbol id="icon-Logo-min" viewBox="0 0 32 32">
<path fill="#d51744" style="fill: var(--color1, #d51744)" d="M32 16c0 8.837-7.163 16-16 16s-16-7.163-16-16c0-8.837 7.163-16 16-16s16 7.163 16 16z"></path>
<path fill="#fff" style="fill: var(--color2, #fff)" d="M25.293 15.674v-1.28c-0.266-4.918-4.319-8.805-9.28-8.805s-9.014 3.887-9.279 8.782l-0.001 0.024v1.28c-1.175 0.364-2.014 1.441-2.014 2.714s0.839 2.35 1.994 2.708l0.020 0.005v3.661c0 0.004-0 0.009-0 0.014 0 2.276 1.593 4.181 3.725 4.659l0.032 0.006v1.6c0.518 0.199 1.16 0.393 1.818 0.544l0.102 0.020v-2.074h7.174v2.061c0.76-0.17 1.402-0.364 2.024-0.598l-0.104 0.034v-1.587c2.175-0.474 3.78-2.382 3.782-4.665v-3.655c1.175-0.364 2.014-1.441 2.014-2.714s-0.839-2.35-1.994-2.708l-0.020-0.005zM16 7.002c0.006 0 0.012-0 0.019-0 2.241 0 4.246 1.005 5.592 2.588l0.009 0.010c-1.356 1.605-3.369 2.617-5.619 2.617s-4.264-1.012-5.61-2.606l-0.009-0.011c1.354-1.594 3.36-2.598 5.6-2.598 0.007 0 0.013 0 0.020 0h-0.001zM8.64 14.362c0-1.108 0.248-2.158 0.691-3.097l-0.019 0.044 0.038 0.038c1.684 1.741 4.041 2.822 6.65 2.822 2.628 0 5-1.096 6.684-2.857l0.003-0.003c0.404 0.878 0.64 1.905 0.64 2.987 0 0.023-0 0.046-0 0.069l0-0.004v1.171h-14.72zM23.36 24.762c0 0.002 0 0.004 0 0.006 0 1.566-1.269 2.835-2.835 2.835 0 0 0 0 0 0h-9.050c0 0 0 0 0 0-1.566 0-2.835-1.269-2.835-2.835 0-0.002 0-0.005 0-0.007v0-3.52h7.2v1.92c0 1.566 1.269 2.835 2.835 2.835s2.835-1.269 2.835-2.835v0-1.92h1.85zM25.28 18.765c-0.038 0.076-0.078 0.141-0.124 0.202l0.002-0.003v0.038c-0.053 0.057-0.112 0.108-0.176 0.151l-0.004 0.002c-0.059 0.038-0.127 0.071-0.199 0.094l-0.006 0.002h-0.058c-0.072 0.021-0.155 0.035-0.241 0.038l-0.002 0h-4.902c0.002 0.014 0.002 0.031 0.002 0.048s-0.001 0.034-0.003 0.050l0-0.002v3.744c-0.041 0.468-0.43 0.833-0.906 0.833s-0.865-0.365-0.905-0.829l-0-0.003v-3.814h-10.24c-0.088-0.003-0.171-0.017-0.25-0.040l0.007 0.002h-0.058c-0.078-0.025-0.146-0.058-0.208-0.098l0.003 0.002c-0.067-0.046-0.126-0.096-0.179-0.153l-0.001-0.001-0.032-0.038c-0.043-0.058-0.084-0.123-0.118-0.191l-0.003-0.007c-0.053-0.111-0.083-0.241-0.083-0.378s0.031-0.267 0.086-0.383l-0.002 0.005c0.038-0.076 0.078-0.141 0.124-0.202l-0.002 0.003 0.032-0.038c0.053-0.057 0.112-0.108 0.176-0.151l0.004-0.002c0.058-0.035 0.126-0.067 0.197-0.093l0.008-0.003h0.058c0.072-0.021 0.155-0.035 0.241-0.038l0.002-0h16.928c0.088 0.003 0.171 0.017 0.25 0.040l-0.007-0.002h0.058c0.079 0.029 0.147 0.061 0.21 0.099l-0.005-0.003c0.067 0.046 0.126 0.096 0.179 0.153l0.001 0.001v0.038c0.043 0.058 0.084 0.123 0.118 0.191l0.003 0.007c0.053 0.111 0.083 0.241 0.083 0.378s-0.031 0.267-0.086 0.383l0.002-0.005z"></path>
</symbol>
</defs>
</svg>
